<svg width="498" height="546" viewBox="0 0 498 546" fill="none" xmlns="http://www.w3.org/2000/svg">
<path d="M303.139 270.202C291.374 271.18 282.795 271.669 277.403 271.669C241.126 274.114 213.184 276.804 193.575 279.738C182.791 281.694 169.555 294.897 153.868 319.347C140.632 339.886 131.563 372.404 126.661 416.904L118.572 443.31C116.121 452.112 112.444 459.692 107.542 466.049C104.601 469.472 100.679 472.406 95.7769 474.851C91.3649 476.807 86.7078 477.785 81.8056 477.785C84.2567 477.785 83.2763 475.096 78.8643 469.717C69.06 456.514 61.7067 446 56.8045 438.176C52.3926 429.863 50.1866 420.572 50.1866 410.302C50.1866 405.901 50.9219 400.767 52.3926 394.899C54.8437 387.564 56.3143 380.229 56.8045 372.893C57.785 369.959 58.7654 365.803 59.7458 360.424C60.7263 354.556 61.9518 349.666 63.4225 345.754C64.8931 341.353 65.6285 337.196 65.6285 333.284C65.6285 322.526 59.991 312.257 48.716 302.477C32.0485 288.295 23.7148 275.337 23.7148 263.601C23.7148 249.908 34.4996 237.194 56.0692 225.458C58.0301 224.48 60.7263 222.769 64.1578 220.324C68.0796 217.878 71.5111 216.411 74.4524 215.922C84.747 213.477 92.1002 208.832 96.5122 201.986C101.414 195.14 105.581 185.604 109.013 173.379C118.327 141.105 128.621 106.385 139.896 69.2206L147.985 42.8143C148.965 39.3912 151.662 33.0342 156.074 23.7431C177.643 23.2541 192.84 29.1221 201.664 41.3473C210.978 53.5724 215.635 69.4651 215.635 89.0254C215.635 91.9594 215.145 96.3604 214.164 102.229L207.546 131.569L203.135 147.706L195.781 186.582L234.754 189.516L328.14 197.585L353.141 120.566L359.024 95.627C373.24 77.0447 385.741 72.6437 396.525 82.4238C406.82 91.7149 415.644 102.229 422.997 113.965C430.841 125.212 434.762 138.17 434.762 152.841C434.762 167.022 430.596 185.115 422.262 207.12C426.184 209.565 430.841 211.766 436.233 213.722C441.625 215.189 445.302 216.167 447.263 216.656C462.46 221.057 474.225 226.192 482.559 232.06C490.892 237.928 496.04 248.441 498.001 263.601C492.118 272.892 484.274 279.004 474.47 281.938C464.666 284.872 453.146 285.606 439.91 284.139C435.008 283.65 428.635 283.405 420.791 283.405C410.006 283.405 402.898 285.606 399.467 290.007C396.035 294.408 391.868 304.677 386.966 320.814L378.142 349.421C366.377 387.564 357.798 418.127 352.406 441.11C347.504 464.093 344.072 488.054 342.111 512.994C342.111 514.95 341.866 519.106 341.376 525.463C341.376 531.331 339.905 535.977 336.964 539.4C334.023 543.312 329.366 545.268 322.993 545.268C306.816 546.735 297.011 538.178 293.58 519.595C281.815 493.678 275.932 468.739 275.932 444.777C275.932 434.508 276.422 426.684 277.403 421.305C282.795 390.009 289.903 350.155 298.727 301.743L303.139 270.202Z" fill="url(#paint0_linear_217_7)" fill-opacity="0.2"/>
<path d="M279.424 246.487C267.659 247.465 259.08 247.954 253.688 247.954C217.412 250.399 189.469 253.089 169.86 256.023C159.076 257.979 145.84 271.182 130.153 295.632C116.917 316.171 107.848 348.69 102.946 393.189L94.8571 419.595C92.406 428.398 88.7294 435.977 83.8272 442.334C80.8859 445.757 76.9642 448.691 72.062 451.136C67.6501 453.092 62.993 454.07 58.0908 454.07C60.5419 454.07 59.5615 451.381 55.1495 446.002C45.3451 432.799 37.9919 422.285 33.0897 414.461C28.6777 406.148 26.4718 396.857 26.4718 386.588C26.4718 382.187 27.2071 377.052 28.6777 371.184C31.1288 363.849 32.5995 356.514 33.0897 349.179C34.0701 346.245 35.0506 342.088 36.031 336.709C37.0114 330.841 38.237 325.951 39.7076 322.039C41.1783 317.638 41.9136 313.481 41.9136 309.569C41.9136 298.811 36.2761 288.542 25.0011 278.762C8.3337 264.581 0 251.622 0 239.886C0 226.194 10.7848 213.479 32.3544 201.743C34.3152 200.765 37.0114 199.054 40.443 196.609C44.3647 194.164 47.7962 192.697 50.7375 192.208C61.0321 189.763 68.3854 185.117 72.7973 178.271C77.6995 171.425 81.8664 161.889 85.2979 149.664C94.612 117.39 104.907 82.6703 116.182 45.5058L124.27 19.0994C125.251 15.6764 127.947 9.31932 132.359 0.0282112C153.928 -0.460789 169.125 5.40728 177.949 17.6324C187.263 29.8576 191.92 45.7503 191.92 65.3105C191.92 68.2446 191.43 72.6456 190.45 78.5137L183.832 107.854L179.42 123.991L172.066 162.867L211.039 165.801L304.425 173.87L329.426 96.8514L335.309 71.9121C349.525 53.3299 362.026 48.9288 372.811 58.7089C383.105 68.0001 391.929 78.5137 399.282 90.2498C407.126 101.497 411.048 114.456 411.048 129.126C411.048 143.307 406.881 161.4 398.547 183.406C402.469 185.851 407.126 188.051 412.518 190.007C417.911 191.474 421.587 192.452 423.548 192.941C438.745 197.342 450.51 202.477 458.844 208.345C467.178 214.213 472.325 224.727 474.286 239.886C468.403 249.177 460.56 255.289 450.755 258.223C440.951 261.157 429.431 261.891 416.195 260.424C411.293 259.935 404.92 259.69 397.076 259.69C386.292 259.69 379.183 261.891 375.752 266.292C372.32 270.693 368.154 280.962 363.251 297.099L354.427 325.706C342.662 363.849 334.083 394.412 328.691 417.395C323.789 440.378 320.357 464.34 318.396 489.279C318.396 491.235 318.151 495.391 317.661 501.749C317.661 507.617 316.19 512.262 313.249 515.685C310.308 519.597 305.651 521.553 299.278 521.553C283.101 523.02 273.296 514.463 269.865 495.88C258.1 469.963 252.217 445.024 252.217 421.062C252.217 410.793 252.707 402.969 253.688 397.59C259.08 366.294 266.188 326.44 275.012 278.028L279.424 246.487Z" fill="url(#paint1_linear_217_7)"/>
<defs>
<linearGradient id="paint0_linear_217_7" x1="106.715" y1="59.2863" x2="391.286" y2="403.143" gradientUnits="userSpaceOnUse">
<stop stop-color="#6D28D9"/>
<stop offset="1" stop-color="#B45309"/>
</linearGradient>
<linearGradient id="paint1_linear_217_7" x1="83" y1="35.5714" x2="367.571" y2="379.429" gradientUnits="userSpaceOnUse">
<stop stop-color="#6D28D9"/>
<stop offset="1" stop-color="#B45309"/>
</linearGradient>
</defs>
</svg>
